<mxfile host="app.diagrams.net" modified="2024-01-29T10:12:11.903Z" agent="Mozilla/5.0 (Windows NT 10.0; Win64; x64) AppleWebKit/537.36 (KHTML, like Gecko) Chrome/121.0.0.0 Safari/537.36" version="23.0.2" etag="RjcmQ20o-30Row6rpc42" type="github">
  <diagram name="Страница — 1" id="4VIFpvgB_l6-nNroEM3K">
    <mxGraphModel>
      <root>
        <mxCell id="0" />
        <mxCell id="1" parent="0" />
      </root>
    </mxGraphModel>
  </diagram>
</mxfile>
